# xmcd CD database file
#
# Track frame offsets:
#	150
#	14720
#	26520
#	40067
#	52552
#	68530
#	80607
#	94952
#	106760
#	119040
#	133485
#	146435
#	159717
#	172825
#	186415
#
# Disc length: 2625 seconds
#
# Revision: 6
# Processed by: cddbd v1.5.2PL0 Copyright (c) Steve Scherf et al.
# Submitted via: CDex 1.70
#
DISCID=ca0a3f0f
DTITLE=Various Artist - Solid Gold Soul - 1967 and 1968 CD2
DYEAR=1967
DGENRE=Soul
TTITLE0=Marvin Gaye - I Heard It Through The Grapevine
TTITLE1=Stevie Wonder - I Was Made To Love Her
TTITLE2=Sly and The Family Stone - Dance To The Music
TTITLE3=Four Tops - Walk Away Renee
TTITLE4=Aretha Franklin - I Say A Little Prayer For You
TTITLE5=Aaron Neville - Tell It Like It Is
TTITLE6=Archie Bell and The Drells - Tighten Up
TTITLE7=The Marveletts - When You're Young and In Love
TTITLE8=Otis Redding - The Happy Song
TTITLE9=The Temptations - You're My Everything
TTITLE10=Martha Reeves and The Vandellas - Jimmy Mack
TTITLE11=Jackie Wilson - I Get The Sweetest Feeling
TTITLE12=Percy Sledge - Take Time To Know Her
TTITLE13=Carla Thomas - Tramp
TTITLE14=Bar-Kays - Soul Finger
EXTD=Ripped by Enagi YEAR: 1967
EXTT0=
EXTT1=
EXTT2=
EXTT3=
EXTT4=
EXTT5=
EXTT6=
EXTT7=
EXTT8=
EXTT9=
EXTT10=
EXTT11=
EXTT12=
EXTT13=
EXTT14=
PLAYORDER=
